<svg width="277" height="53" viewBox="0 0 277 53" fill="none" xmlns="http://www.w3.org/2000/svg">
<g filter="url(#filter0_d_2025_2)">
<path fill-rule="evenodd" clip-rule="evenodd" d="M22.757 46.0483C21.7864 46.5741 20.5733 46.214 20.0467 45.2439L2.98689 13.818C2.44731 12.824 2.83859 11.5807 3.85017 11.0749L12.2872 6.85638C13.245 6.37752 14.41 6.73792 14.93 7.67395L25.539 26.7703C26.0714 27.7285 27.276 28.0797 28.2399 27.5575L36.7414 22.9526C37.7127 22.4265 38.9265 22.7873 39.4526 23.7586L44.0474 32.2414C44.5735 33.2127 44.2127 34.4265 43.2414 34.9526L22.757 46.0483Z" fill="#5343FF"/>
<path fill-rule="evenodd" clip-rule="evenodd" d="M43.243 0.951691C44.2136 0.425946 45.4267 0.785967 45.9533 1.75609L63.0131 33.182C63.5527 34.176 63.1614 35.4193 62.1498 35.9251L53.7128 40.1436C52.755 40.6225 51.59 40.2621 51.07 39.326L40.461 20.2297C39.9286 19.2715 38.724 18.9203 37.7601 19.4425L29.2586 24.0474C28.2873 24.5735 27.0735 24.2127 26.5474 23.2414L21.9526 14.7586C21.4265 13.7873 21.7873 12.5735 22.7586 12.0474L43.243 0.951691Z" fill="#5343FF"/>
</g>
<g filter="url(#filter1_d_2025_2)">
<path d="M78.7314 17.1C79.8114 17.1 80.7981 17.1933 81.6914 17.38C82.5847 17.5533 83.3314 17.7533 83.9314 17.98C84.5447 18.2067 84.9381 18.3933 85.1114 18.54L83.1314 22.12C82.8781 21.9333 82.4047 21.6933 81.7114 21.4C81.0314 21.1067 80.2714 20.96 79.4314 20.96C78.7914 20.96 78.2514 21.06 77.8114 21.26C77.3714 21.4467 77.1514 21.7467 77.1514 22.16C77.1514 22.5733 77.3914 22.9067 77.8714 23.16C78.3647 23.4 79.0714 23.6133 79.9914 23.8C80.7914 23.96 81.6047 24.2133 82.4314 24.56C83.2581 24.9067 83.9447 25.42 84.4914 26.1C85.0514 26.7667 85.3314 27.66 85.3314 28.78C85.3314 29.9267 85.0847 30.8733 84.5914 31.62C84.0981 32.3667 83.4447 32.9467 82.6314 33.36C81.8181 33.7733 80.9381 34.06 79.9914 34.22C79.0447 34.3933 78.1247 34.48 77.2314 34.48C75.9781 34.48 74.8847 34.3667 73.9514 34.14C73.0314 33.9133 72.2847 33.6533 71.7114 33.36C71.1381 33.0667 70.7381 32.8333 70.5114 32.66L72.4714 28.66C72.8181 28.9533 73.3847 29.2867 74.1714 29.66C74.9581 30.02 75.7914 30.2 76.6714 30.2C77.5247 30.2 78.1847 30.0733 78.6514 29.82C79.1181 29.5667 79.3514 29.2333 79.3514 28.82C79.3514 28.4867 79.2381 28.22 79.0114 28.02C78.7847 27.82 78.4647 27.6467 78.0514 27.5C77.6381 27.3533 77.1381 27.22 76.5514 27.1C76.0181 26.9933 75.4514 26.8267 74.8514 26.6C74.2514 26.3733 73.6847 26.0667 73.1514 25.68C72.6181 25.28 72.1847 24.78 71.8514 24.18C71.5181 23.58 71.3514 22.8533 71.3514 22C71.3514 20.9067 71.7047 20 72.4114 19.28C73.1181 18.56 74.0314 18.02 75.1514 17.66C76.2714 17.2867 77.4647 17.1 78.7314 17.1ZM86.8855 17.58H89.6855V10.84H95.7055V17.58H99.3855V22.58H95.7055V27.16C95.7055 27.84 95.8055 28.3933 96.0055 28.82C96.2055 29.2333 96.5721 29.44 97.1055 29.44C97.4655 29.44 97.7721 29.36 98.0255 29.2C98.2788 29.04 98.4321 28.9333 98.4855 28.88L100.565 33.2C100.472 33.28 100.179 33.4267 99.6855 33.64C99.2055 33.8533 98.5921 34.0467 97.8455 34.22C97.0988 34.3933 96.2655 34.48 95.3455 34.48C93.7055 34.48 92.3521 34.02 91.2855 33.1C90.2188 32.1667 89.6855 30.7333 89.6855 28.8V22.58H86.8855V17.58ZM108.377 34H102.297V17.58H108.377V20.12H108.277C108.383 19.8133 108.643 19.4267 109.057 18.96C109.47 18.48 110.05 18.0533 110.797 17.68C111.543 17.2933 112.457 17.1 113.537 17.1C114.297 17.1 114.997 17.22 115.637 17.46C116.277 17.6867 116.743 17.9067 117.037 18.12L114.677 23.06C114.49 22.8333 114.157 22.6 113.677 22.36C113.21 22.1067 112.623 21.98 111.917 21.98C111.103 21.98 110.43 22.1867 109.897 22.6C109.377 23.0133 108.99 23.5133 108.737 24.1C108.497 24.6867 108.377 25.24 108.377 25.76V34ZM123.086 27.08C123.126 27.6667 123.313 28.1867 123.646 28.64C123.98 29.0933 124.44 29.4533 125.026 29.72C125.626 29.9733 126.333 30.1 127.146 30.1C127.92 30.1 128.613 30.02 129.226 29.86C129.853 29.7 130.393 29.5 130.846 29.26C131.313 29.02 131.673 28.7733 131.926 28.52L134.286 32.28C133.953 32.64 133.48 32.9933 132.866 33.34C132.266 33.6733 131.473 33.9467 130.486 34.16C129.5 34.3733 128.253 34.48 126.746 34.48C124.933 34.48 123.32 34.14 121.906 33.46C120.493 32.78 119.38 31.78 118.566 30.46C117.753 29.14 117.346 27.5267 117.346 25.62C117.346 24.02 117.693 22.58 118.386 21.3C119.093 20.0067 120.113 18.9867 121.446 18.24C122.78 17.48 124.386 17.1 126.266 17.1C128.053 17.1 129.6 17.4267 130.906 18.08C132.226 18.7333 133.24 19.7067 133.946 21C134.666 22.28 135.026 23.88 135.026 25.8C135.026 25.9067 135.02 26.12 135.006 26.44C135.006 26.76 134.993 26.9733 134.966 27.08H123.086ZM129.306 23.9C129.293 23.4733 129.18 23.0533 128.966 22.64C128.753 22.2133 128.433 21.8667 128.006 21.6C127.58 21.32 127.033 21.18 126.366 21.18C125.7 21.18 125.133 21.3133 124.666 21.58C124.213 21.8333 123.866 22.1667 123.626 22.58C123.386 22.9933 123.253 23.4333 123.226 23.9H129.306ZM150.908 34V31.34C150.788 31.6067 150.482 31.9933 149.988 32.5C149.508 33.0067 148.868 33.4667 148.068 33.88C147.268 34.28 146.335 34.48 145.268 34.48C143.668 34.48 142.268 34.0933 141.068 33.32C139.868 32.5333 138.935 31.4867 138.268 30.18C137.602 28.86 137.268 27.4 137.268 25.8C137.268 24.2 137.602 22.7467 138.268 21.44C138.935 20.12 139.868 19.0667 141.068 18.28C142.268 17.4933 143.668 17.1 145.268 17.1C146.295 17.1 147.195 17.2667 147.968 17.6C148.742 17.92 149.368 18.3067 149.848 18.76C150.328 19.2 150.662 19.6067 150.848 19.98V17.58H156.888V34H150.908ZM143.228 25.8C143.228 26.5467 143.402 27.22 143.748 27.82C144.095 28.4067 144.555 28.8667 145.128 29.2C145.715 29.5333 146.362 29.7 147.068 29.7C147.802 29.7 148.448 29.5333 149.008 29.2C149.568 28.8667 150.008 28.4067 150.328 27.82C150.662 27.22 150.828 26.5467 150.828 25.8C150.828 25.0533 150.662 24.3867 150.328 23.8C150.008 23.2 149.568 22.7333 149.008 22.4C148.448 22.0533 147.802 21.88 147.068 21.88C146.362 21.88 145.715 22.0533 145.128 22.4C144.555 22.7333 144.095 23.2 143.748 23.8C143.402 24.3867 143.228 25.0533 143.228 25.8ZM183.326 17.1C184.566 17.1 185.66 17.36 186.606 17.88C187.553 18.3867 188.293 19.1733 188.826 20.24C189.373 21.3067 189.646 22.68 189.646 24.36V34H183.666V25.28C183.666 24.1333 183.493 23.2067 183.146 22.5C182.8 21.7933 182.113 21.44 181.086 21.44C180.473 21.44 179.933 21.6 179.466 21.92C179 22.24 178.64 22.6867 178.386 23.26C178.133 23.82 178.006 24.4933 178.006 25.28V34H172.426V25.28C172.426 24.1333 172.233 23.2067 171.846 22.5C171.473 21.7933 170.806 21.44 169.846 21.44C169.233 21.44 168.693 21.6 168.226 21.92C167.76 22.2267 167.4 22.6667 167.146 23.24C166.906 23.8 166.786 24.48 166.786 25.28V34H160.746V17.58H166.786V19.92C166.946 19.5067 167.293 19.0867 167.826 18.66C168.373 18.22 169.046 17.8533 169.846 17.56C170.646 17.2533 171.493 17.1 172.386 17.1C173.36 17.1 174.173 17.2467 174.826 17.54C175.48 17.82 176.013 18.2 176.426 18.68C176.853 19.16 177.193 19.68 177.446 20.24C177.633 19.76 178 19.28 178.546 18.8C179.106 18.3067 179.8 17.9 180.626 17.58C181.466 17.26 182.366 17.1 183.326 17.1ZM199.148 42.32H193.128V17.58H199.208V19.98C199.395 19.6067 199.748 19.2 200.268 18.76C200.802 18.3067 201.475 17.92 202.288 17.6C203.115 17.2667 204.048 17.1 205.088 17.1C206.688 17.1 208.055 17.4933 209.188 18.28C210.335 19.0667 211.215 20.12 211.828 21.44C212.442 22.7467 212.748 24.2 212.748 25.8C212.748 27.4 212.422 28.86 211.768 30.18C211.115 31.4867 210.195 32.5333 209.008 33.32C207.835 34.0933 206.448 34.48 204.848 34.48C203.702 34.48 202.722 34.28 201.908 33.88C201.108 33.4667 200.475 33.0133 200.008 32.52C199.555 32.0133 199.268 31.62 199.148 31.34V42.32ZM206.808 25.8C206.808 25.0533 206.642 24.3867 206.308 23.8C205.975 23.2 205.522 22.7333 204.948 22.4C204.388 22.0533 203.755 21.88 203.048 21.88C202.315 21.88 201.655 22.0533 201.068 22.4C200.495 22.7333 200.042 23.2 199.708 23.8C199.375 24.3867 199.208 25.0533 199.208 25.8C199.208 26.5467 199.375 27.22 199.708 27.82C200.042 28.4067 200.495 28.8667 201.068 29.2C201.655 29.5333 202.315 29.7 203.048 29.7C203.755 29.7 204.388 29.5333 204.948 29.2C205.522 28.8667 205.975 28.4067 206.308 27.82C206.642 27.22 206.808 26.5467 206.808 25.8ZM221.905 34H215.805V6.48H221.905V34ZM238.565 34V31.34C238.445 31.6067 238.138 31.9933 237.645 32.5C237.165 33.0067 236.525 33.4667 235.725 33.88C234.925 34.28 233.991 34.48 232.925 34.48C231.325 34.48 229.925 34.0933 228.725 33.32C227.525 32.5333 226.591 31.4867 225.925 30.18C225.258 28.86 224.925 27.4 224.925 25.8C224.925 24.2 225.258 22.7467 225.925 21.44C226.591 20.12 227.525 19.0667 228.725 18.28C229.925 17.4933 231.325 17.1 232.925 17.1C233.951 17.1 234.851 17.2667 235.625 17.6C236.398 17.92 237.025 18.3067 237.505 18.76C237.985 19.2 238.318 19.6067 238.505 19.98V17.58H244.545V34H238.565ZM230.885 25.8C230.885 26.5467 231.058 27.22 231.405 27.82C231.751 28.4067 232.211 28.8667 232.785 29.2C233.371 29.5333 234.018 29.7 234.725 29.7C235.458 29.7 236.105 29.5333 236.665 29.2C237.225 28.8667 237.665 28.4067 237.985 27.82C238.318 27.22 238.485 26.5467 238.485 25.8C238.485 25.0533 238.318 24.3867 237.985 23.8C237.665 23.2 237.225 22.7333 236.665 22.4C236.105 22.0533 235.458 21.88 234.725 21.88C234.018 21.88 233.371 22.0533 232.785 22.4C232.211 22.7333 231.751 23.2 231.405 23.8C231.058 24.3867 230.885 25.0533 230.885 25.8ZM256.683 28.74L261.123 17.58H267.083L255.803 42.32H249.723L253.523 34L246.663 17.58H252.723L256.683 28.74Z" fill="#1D1D1D"/>
</g>
<defs>
<filter id="filter0_d_2025_2" x="0.744141" y="0.7099" width="64.5117" height="51.5802" filterUnits="userSpaceOnUse" color-interpolation-filters="sRGB">
<feFlood flood-opacity="0" result="BackgroundImageFix"/>
<feColorMatrix in="SourceAlpha" type="matrix" values="0 0 0 0 0 0 0 0 0 0 0 0 0 0 0 0 0 0 127 0" result="hardAlpha"/>
<feOffset dy="4"/>
<feGaussianBlur stdDeviation="1"/>
<feComposite in2="hardAlpha" operator="out"/>
<feColorMatrix type="matrix" values="0 0 0 0 0 0 0 0 0 0 0 0 0 0 0 0 0 0 0.25 0"/>
<feBlend mode="normal" in2="BackgroundImageFix" result="effect1_dropShadow_2025_2"/>
<feBlend mode="normal" in="SourceGraphic" in2="effect1_dropShadow_2025_2" result="shape"/>
</filter>
<filter id="filter1_d_2025_2" x="67.7117" y="6.47998" width="202.171" height="42.64" filterUnits="userSpaceOnUse" color-interpolation-filters="sRGB">
<feFlood flood-opacity="0" result="BackgroundImageFix"/>
<feColorMatrix in="SourceAlpha" type="matrix" values="0 0 0 0 0 0 0 0 0 0 0 0 0 0 0 0 0 0 127 0" result="hardAlpha"/>
<feOffset dy="4"/>
<feGaussianBlur stdDeviation="1.4"/>
<feComposite in2="hardAlpha" operator="out"/>
<feColorMatrix type="matrix" values="0 0 0 0 0 0 0 0 0 0 0 0 0 0 0 0 0 0 0.25 0"/>
<feBlend mode="normal" in2="BackgroundImageFix" result="effect1_dropShadow_2025_2"/>
<feBlend mode="normal" in="SourceGraphic" in2="effect1_dropShadow_2025_2" result="shape"/>
</filter>
</defs>
</svg>
