<svg width="100" height="100" viewBox="0 0 100 100" fill="none" xmlns="http://www.w3.org/2000/svg">
<g filter="url(#filter0_d_2024_11)">
<path fill-rule="evenodd" clip-rule="evenodd" d="M34.1591 84.3067C33.1885 84.8324 31.9755 84.4724 31.4488 83.5023L4.98688 34.7562C4.4473 33.7623 4.83858 32.519 5.85016 32.0132L20.2254 24.8255C21.1832 24.3467 22.3482 24.7071 22.8682 25.6431L39.6629 55.8737C40.1952 56.832 41.3998 57.1831 42.3637 56.661L56.8034 48.8395C57.7747 48.3134 58.9885 48.6742 59.5146 49.6455L67.326 64.0666C67.8521 65.0379 67.4912 66.2517 66.52 66.7778L34.1591 84.3067Z" fill="url(#paint0_linear_2024_11)"/>
<path fill-rule="evenodd" clip-rule="evenodd" d="M66.5225 15.9517C67.4931 15.4259 68.7062 15.786 69.2328 16.7561L95.6948 65.5021C96.2343 66.4961 95.8431 67.7394 94.8315 68.2451L80.4562 75.4328C79.4985 75.9117 78.3335 75.5513 77.8135 74.6153L61.0188 44.3846C60.4864 43.4264 59.2818 43.0752 58.3179 43.5973L43.8782 51.4189C42.907 51.945 41.6931 51.5841 41.167 50.6129L33.3556 36.1917C32.8296 35.2205 33.1904 34.0067 34.1617 33.4806L66.5225 15.9517Z" fill="url(#paint1_linear_2024_11)"/>
</g>
<defs>
<filter id="filter0_d_2024_11" x="2.74414" y="15.7099" width="95.1934" height="74.8386" filterUnits="userSpaceOnUse" color-interpolation-filters="sRGB">
<feFlood flood-opacity="0" result="BackgroundImageFix"/>
<feColorMatrix in="SourceAlpha" type="matrix" values="0 0 0 0 0 0 0 0 0 0 0 0 0 0 0 0 0 0 127 0" result="hardAlpha"/>
<feOffset dy="4"/>
<feGaussianBlur stdDeviation="1"/>
<feComposite in2="hardAlpha" operator="out"/>
<feColorMatrix type="matrix" values="0 0 0 0 0 0 0 0 0 0 0 0 0 0 0 0 0 0 0.25 0"/>
<feBlend mode="normal" in2="BackgroundImageFix" result="effect1_dropShadow_2024_11"/>
<feBlend mode="normal" in="SourceGraphic" in2="effect1_dropShadow_2024_11" result="shape"/>
</filter>
<linearGradient id="paint0_linear_2024_11" x1="4" y1="33.6857" x2="103.408" y2="91.2373" gradientUnits="userSpaceOnUse">
<stop stop-color="#F8BE64"/>
<stop offset="1" stop-color="white"/>
</linearGradient>
<linearGradient id="paint1_linear_2024_11" x1="87.7125" y1="60.5932" x2="5.49549" y2="6.77872" gradientUnits="userSpaceOnUse">
<stop stop-color="#F8BE64"/>
<stop offset="1" stop-color="white"/>
</linearGradient>
</defs>
</svg>
